<?xml version="1.0" encoding="utf-8"?>
<!-- Generator: Adobe Illustrator 20.1.0, SVG Export Plug-In . SVG Version: 6.00 Build 0)  -->
<!DOCTYPE svg PUBLIC "-//W3C//DTD SVG 1.1//EN" "http://www.w3.org/Graphics/SVG/1.1/DTD/svg11.dtd">
<svg version="1.1" id="Layer_1" xmlns="http://www.w3.org/2000/svg" xmlns:xlink="http://www.w3.org/1999/xlink" x="0px" y="0px"
	 width="626px" height="626px" viewBox="0 0 626 626" style="enable-background:new 0 0 626 626;" xml:space="preserve">
<style type="text/css">
	.st0{fill:#F9F9F9;}
	.st1{fill:#458BC4;}
	.st2{fill:#43A6DD;}
	.st3{fill:#BADEFC;}
	.st4{fill:#444444;}
	.st5{fill:#B3B3B3;}
	.st6{fill:#E6E6E6;}
	.st7{fill:#FFFFFF;}
	.st8{fill:#E86C60;}
	.st9{fill:#606060;}
	.st10{fill:#EFD358;}
	.st11{fill:#72C472;}
	.st12{fill:#4F4F4F;}
	.st13{fill:#8C8C8C;}
	.st14{fill:#595959;}
	.st15{fill:#223E49;}
	.st16{fill:#EAD8C5;}
	.st17{fill:#335262;}
	.st18{fill:#DD5E58;}
	.st19{fill:#CEB341;}
	.st20{fill:#5A7A84;}
	.st21{fill:none;}
	.st22{fill:#A67C52;}
	.st23{fill:#232323;}
	.st24{fill:#389BC6;}
	.st25{fill:#EA9860;}
	.st26{fill:#B29930;}
	.st27{fill:#969696;}
	.st28{opacity:0.8;fill:#43A6DD;enable-background:new    ;}
	.st29{opacity:0.8;fill:#E86C60;enable-background:new    ;}
	.st30{opacity:0.8;fill:#EFD358;enable-background:new    ;}
	.st31{fill:#9E9E9E;}
	.st32{fill:#9EDB9E;}
	.st33{fill:#4DA34D;}
	.st34{fill:#303030;}
	.st35{fill:#333333;}
	.st36{fill:#2D2D2D;}
	.st37{fill:#5B5B5B;}
</style>
<rect class="st0" width="626" height="626"/>
<g transform="translate(24, 24)">
	<path class="st1" d="M69.6,35.2c-0.3-0.2-0.6-0.2-0.9-0.1l-20,8C48.2,43.2,48,43.6,48,44v26c0,0.3,0.2,0.6,0.4,0.8
		c0.2,0.1,0.4,0.2,0.6,0.2c0.1,0,0.3,0,0.4-0.1l20-8c0.4-0.2,0.6-0.5,0.6-0.9V36C70,35.7,69.8,35.4,69.6,35.2z"/>
	<path class="st2" d="M49,42.9l-19.6-7.9c-0.3-0.1-0.7-0.1-0.9,0.1C28.2,35.4,28,35.7,28,36v26c0,0.4,0.2,0.8,0.6,0.9l20,8
		c0.1,0,0.2,0.1,0.4,0.1V42.9z"/>
	<path class="st3" d="M69.4,35.1l-20-8c-0.2-0.1-0.5-0.1-0.7,0l-20,8C28.2,35.2,28,35.6,28,36s0.2,0.8,0.6,0.9l20,8
		c0.1,0,0.2,0.1,0.4,0.1s0.3,0,0.4-0.1l20-8c0.4-0.2,0.6-0.5,0.6-0.9S69.8,35.2,69.4,35.1z"/>
</g>
<g transform="translate(120, 24)">
	<rect x="26" y="36" class="st4" width="5" height="2"/>
	<rect x="26" y="60" class="st4" width="5" height="2"/>
	<rect x="67" y="36" class="st4" width="5" height="2"/>
	<rect x="67" y="60" class="st4" width="5" height="2"/>
	<rect x="36" y="26" class="st4" width="2" height="5"/>
	<rect x="60" y="26" class="st4" width="2" height="5"/>
	<rect x="36" y="67" class="st4" width="2" height="5"/>
	<rect x="60" y="67" class="st4" width="2" height="5"/>
	<path class="st5" d="M62,63H36c-0.6,0-1-0.4-1-1V36c0-0.6,0.4-1,1-1h26c0.6,0,1,0.4,1,1v26C63,62.6,62.6,63,62,63z M37,61h24V37H37
		V61z"/>
	<rect x="37" y="37" class="st6" width="6" height="6"/>
	<rect x="43" y="37" class="st7" width="6" height="6"/>
	<rect x="49" y="37" class="st6" width="6" height="6"/>
	<rect x="55" y="37" class="st7" width="6" height="6"/>
	<rect x="37" y="43" class="st7" width="6" height="6"/>
	<rect x="43" y="43" class="st6" width="6" height="6"/>
	<rect x="49" y="43" class="st7" width="6" height="6"/>
	<rect x="55" y="43" class="st6" width="6" height="6"/>
	<rect x="37" y="49" class="st6" width="6" height="6"/>
	<rect x="43" y="49" class="st7" width="6" height="6"/>
	<rect x="49" y="49" class="st6" width="6" height="6"/>
	<rect x="55" y="49" class="st7" width="6" height="6"/>
	<rect x="37" y="55" class="st7" width="6" height="6"/>
	<rect x="43" y="55" class="st6" width="6" height="6"/>
	<rect x="49" y="55" class="st7" width="6" height="6"/>
	<rect x="55" y="55" class="st6" width="6" height="6"/>
</g>
<g transform="translate(216, 24)">
	<path class="st4" d="M33,52h-6c-0.6,0-1-0.4-1-1s0.4-1,1-1h6c0.6,0,1,0.4,1,1S33.6,52,33,52z"/>
	<path class="st4" d="M37.2,40.2c-0.3,0-0.5-0.1-0.7-0.3l-4.2-4.2c-0.4-0.4-0.4-1,0-1.4c0.4-0.4,1-0.4,1.4,0l4.2,4.2
		c0.4,0.4,0.4,1,0,1.4C37.7,40.1,37.4,40.2,37.2,40.2z"/>
	<path class="st4" d="M60.8,40.2c-0.3,0-0.5-0.1-0.7-0.3c-0.4-0.4-0.4-1,0-1.4l4.2-4.2c0.4-0.4,1-0.4,1.4,0c0.4,0.4,0.4,1,0,1.4
		l-4.2,4.2C61.3,40.1,61.1,40.2,60.8,40.2z"/>
	<path class="st4" d="M33,70c-0.3,0-0.5-0.1-0.7-0.3c-0.4-0.4-0.4-1,0-1.4l4.2-4.2c0.4-0.4,1-0.4,1.4,0c0.4,0.4,0.4,1,0,1.4
		l-4.2,4.2C33.5,69.9,33.3,70,33,70z"/>
	<path class="st4" d="M65,70c-0.3,0-0.5-0.1-0.7-0.3l-4.2-4.2c-0.4-0.4-0.4-1,0-1.4c0.4-0.4,1-0.4,1.4,0l4.2,4.2
		c0.4,0.4,0.4,1,0,1.4C65.5,69.9,65.3,70,65,70z"/>
	<path class="st4" d="M71,52h-6c-0.6,0-1-0.4-1-1s0.4-1,1-1h6c0.6,0,1,0.4,1,1S71.6,52,71,52z"/>
	<path class="st8" d="M57.3,34.6c-0.2-0.1-0.4-0.2-0.6-0.2c0,0,0,0,0,0l-15.6,0c-0.2,0-0.4,0.1-0.6,0.2C35.3,38.1,32,44.8,32,52
		c0,11,7.6,20,17,20s17-9,17-20C66,44.8,62.7,38.1,57.3,34.6z"/>
	<path class="st4" d="M59.7,26.3c-0.4-0.4-1-0.4-1.4,0L54.6,30c-1.5-1.2-3.5-2-5.6-2s-4.1,0.7-5.6,2l-3.7-3.7c-0.4-0.4-1-0.4-1.4,0
		c-0.4,0.4-0.4,1,0,1.4l3.7,3.7c-1,1.2-1.7,2.8-1.9,4.4c0,0.2,0,0.3,0,0.5c0.3,0.8,5.1,3.7,8.9,3.7s8.6-2.9,8.9-3.7
		c0.1-0.1,0.1-0.3,0-0.5c-0.2-1.7-0.9-3.2-1.9-4.4l3.7-3.7C60.1,27.3,60.1,26.7,59.7,26.3z"/>
	<path class="st4" d="M49,72c0.3,0,0.7,0,1-0.1V39c0-0.6-0.4-1-1-1s-1,0.4-1,1v32.9C48.3,72,48.7,72,49,72z"/>
	<circle class="st4" cx="40" cy="48" r="3"/>
	<circle class="st4" cx="42.5" cy="59.5" r="2.5"/>
	<circle class="st4" cx="58" cy="48" r="3"/>
	<circle class="st4" cx="55.5" cy="59.5" r="2.5"/>
</g>
<g transform="translate(312, 24)">
	<path class="st4" d="M72,36v-5c0-1.1-0.9-2-2-2H28c-1.1,0-2,0.9-2,2v5H72z"/>
	<path class="st9" d="M70,68H40V36h32v30C72,67.1,71.1,68,70,68z"/>
	<circle class="st8" cx="29.5" cy="32.5" r="1.5"/>
	<circle class="st10" cx="34.5" cy="32.5" r="1.5"/>
	<circle class="st11" cx="39.5" cy="32.5" r="1.5"/>
	<path class="st12" d="M41,68H28c-1.1,0-2-0.9-2-2V36h15V68z"/>
	<rect x="30" y="39" class="st5" width="7" height="2"/>
	<rect x="30" y="45" class="st5" width="5" height="2"/>
	<rect x="30" y="51" class="st5" width="7" height="2"/>
	<rect x="30" y="57" class="st5" width="5" height="2"/>
	<rect x="30" y="63" class="st5" width="7" height="2"/>
	<rect x="45" y="39" class="st8" width="5" height="2"/>
	<rect x="49" y="45" class="st10" width="7" height="2"/>
	<rect x="52" y="51" class="st7" width="10" height="2"/>
	<rect x="49" y="57" class="st10" width="7" height="2"/>
	<rect x="45" y="63" class="st8" width="5" height="2"/>
</g>
<g transform="translate(408, 24)">
	<path class="st13" d="M65,55H33c-0.6,0-1-0.4-1-1s0.4-1,1-1h32c0.6,0,1,0.4,1,1S65.6,55,65,55z"/>
	<path class="st4" d="M44.1,38c-0.4,0-0.8,0.2-1,0.5l-16,31c-0.2,0.4-0.1,0.8,0.1,1.1c0.2,0.2,0.5,0.3,0.8,0.3c0.1,0,0.2,0,0.3-0.1
		l6-2c0.2-0.1,0.5-0.3,0.6-0.5L48.6,42C46.4,41.8,44.5,40.2,44.1,38z"/>
	<path class="st13" d="M49,33c-0.6,0-1-0.4-1-1v-5c0-0.6,0.4-1,1-1s1,0.4,1,1v5C50,32.6,49.6,33,49,33z"/>
	<path class="st4" d="M70.9,69.5l-16-31c-0.2-0.4-0.6-0.6-1-0.5c-0.4,2.2-2.3,3.8-4.5,4l13.7,26.5c0.1,0.2,0.3,0.4,0.6,0.5l6,2
		c0.1,0,0.2,0.1,0.3,0.1c0.3,0,0.6-0.1,0.8-0.3C71,70.3,71.1,69.9,70.9,69.5z"/>
	<path class="st5" d="M49,59c-0.6,0-1-0.4-1-1v-8c0-0.6,0.4-1,1-1s1,0.4,1,1v8C50,58.6,49.6,59,49,59z"/>
	<path class="st5" d="M49,43c-3.3,0-6-2.7-6-6s2.7-6,6-6s6,2.7,6,6S52.3,43,49,43z M49,33c-2.2,0-4,1.8-4,4s1.8,4,4,4s4-1.8,4-4
		S51.2,33,49,33z"/>
</g>
<g transform="translate(504, 24)">
	<path class="st8" d="M43,56c-0.3,0-0.5-0.1-0.7-0.3c-0.4-0.4-0.4-1,0-1.4l24-24c0.4-0.4,1-0.4,1.4,0s0.4,1,0,1.4l-24,24
		C43.5,55.9,43.3,56,43,56z"/>
	<path class="st14" d="M70,61H38c-0.6,0-1-0.4-1-1V28c0-0.6,0.4-1,1-1h4c0.6,0,1,0.4,1,1v27h27c0.6,0,1,0.4,1,1v4
		C71,60.6,70.6,61,70,61z"/>
	<path class="st14" d="M60,71h-4c-0.6,0-1-0.4-1-1V43H28c-0.6,0-1-0.4-1-1v-4c0-0.6,0.4-1,1-1h32c0.6,0,1,0.4,1,1v32
		C61,70.6,60.6,71,60,71z"/>
	<rect x="37" y="43" class="st4" width="6" height="3"/>
	<rect x="55" y="61" class="st4" width="6" height="3"/>
</g>
<g transform="translate(24, 120)">
	<polygon class="st15" points="64.5,68.8 65.7,65.7 68.8,64.5 69.9,69.9 	"/>
	<polygon class="st16" points="58.2,67.6 60.7,60.4 67.6,58.2 68.8,64.5 64.5,68.8 	"/>
	<path class="st17" d="M38.1,28.7l5.3,5.3l-3.7,5.7l-5.7,3.7l-5.3-5.3c-0.8-0.8-0.8-2,0-2.8l6.6-6.6C36,27.9,37.3,27.9,38.1,28.7z"
		/>
	
		<rect x="48.6" y="31.8" transform="matrix(0.7071 -0.7071 0.7071 0.7071 -19.1736 51.5301)" class="st8" width="8.1" height="34.2"/>
	
		<rect x="45.1" y="36" transform="matrix(0.7071 -0.7071 0.7071 0.7071 -23.3804 49.7872)" class="st18" width="6.7" height="34.2"/>
	<rect x="32" y="37.7" transform="matrix(0.7071 -0.7071 0.7071 0.7071 -16.0111 38.6552)" class="st6" width="13.3" height="2"/>
	<path class="st10" d="M70.2,37.7l-9.9-9.9c-0.8-0.8-2-0.8-2.8,0L27.8,57.5c-0.8,0.8-0.8,2,0,2.8l9.9,9.9c0.8,0.8,2,0.8,2.8,0
		l29.7-29.7C71,39.7,71,38.5,70.2,37.7z"/>
	<rect x="55.8" y="30.2" transform="matrix(0.7071 -0.7071 0.7071 0.7071 -7.5187 50.1507)" class="st19" width="2" height="8"/>
	<rect x="49.1" y="36.2" transform="matrix(0.7071 -0.7071 0.7071 0.7071 -12.7358 46.7469)" class="st19" width="2" height="5"/>
	<rect x="44.5" y="41.5" transform="matrix(0.7071 -0.7071 0.7071 0.7071 -18.8323 45.4638)" class="st19" width="2" height="8"/>
	<rect x="33.2" y="52.8" transform="matrix(0.7071 -0.7071 0.7071 0.7071 -30.1455 40.7779)" class="st19" width="2" height="8"/>
	<rect x="37.7" y="47.6" transform="matrix(0.7071 -0.7071 0.7071 0.7071 -24.0496 42.0607)" class="st19" width="2" height="5"/>
</g>
<g transform="translate(120, 120)">
	<polygon class="st4" points="28,32 26,32 26,26 32,26 32,28 28,28 	"/>
	<polygon class="st4" points="32,64 26,64 26,58 28,58 28,62 32,62 	"/>
	<polygon class="st4" points="64,32 62,32 62,28 58,28 58,26 64,26 	"/>
	<rect x="37" y="26" class="st4" width="5" height="2"/>
	<rect x="37" y="62" class="st4" width="5" height="2"/>
	<rect x="48" y="26" class="st4" width="5" height="2"/>
	<rect x="26" y="37" class="st4" width="2" height="5"/>
	<rect x="62" y="37" class="st4" width="2" height="5"/>
	<rect x="26" y="48" class="st4" width="2" height="5"/>
	<polygon class="st4" points="68,50 45,45 50,68 55,59 65,69 69,65 59,55 	"/>
	<path class="st6" d="M65,70c-0.3,0-0.5-0.1-0.7-0.3l-9.1-9.1l-4.4,7.8c-0.2,0.4-0.6,0.6-1,0.5c-0.4-0.1-0.7-0.4-0.8-0.8l-5-23
		c-0.1-0.3,0-0.7,0.3-0.9c0.2-0.2,0.6-0.3,0.9-0.3l23,5c0.4,0.1,0.7,0.4,0.8,0.8c0.1,0.4-0.1,0.8-0.5,1l-7.8,4.4l9.1,9.1
		c0.4,0.4,0.4,1,0,1.4l-4,4C65.5,69.9,65.3,70,65,70z M55,58c0.3,0,0.5,0.1,0.7,0.3l9.3,9.3l2.6-2.6l-9.3-9.3
		c-0.2-0.2-0.3-0.5-0.3-0.8c0-0.3,0.2-0.6,0.5-0.7l6.7-3.7l-18.9-4.1l4.1,18.9l3.7-6.7c0.2-0.3,0.4-0.5,0.7-0.5C54.9,58,55,58,55,58
		z"/>
</g>
<g transform="translate(216, 120)">
	<path class="st6" d="M65.1,48.5L49.5,33c-0.4-0.4-0.4-1,0-1.4l5-4.9c0.8-0.8,2-0.8,2.8,0l14.1,14.1c0.8,0.8,0.8,2,0,2.8l-4.9,5
		C66.1,48.9,65.4,48.9,65.1,48.5z"/>
	<path class="st6" d="M41.7,70.4L27.6,56.3c-0.8-0.8-0.8-2,0-2.8l4.9-5c0.4-0.4,1-0.4,1.4,0l15.6,15.6c0.4,0.4,0.4,1,0,1.4l-5,5
		C43.8,71.2,42.5,71.2,41.7,70.4z"/>
	<path class="st2" d="M48.8,66.2l-17-17c-0.4-0.4-0.4-1,0-1.4l17-17c0.4-0.4,1-0.4,1.4,0l17,17c0.4,0.4,0.4,1,0,1.4l-17,17
		C49.8,66.6,49.2,66.6,48.8,66.2z"/>
	<rect x="35.9" y="44.3" transform="matrix(0.7071 -0.7071 0.7071 0.7071 -19.934 42.5225)" class="st7" width="11" height="2"/>
	<path class="st5" d="M65,72H39c-0.6,0-1-0.4-1-1s0.4-1,1-1h26c0.6,0,1,0.4,1,1S65.6,72,65,72z"/>
</g>
<g transform="translate(312, 120)">
	<path class="st5" d="M49,72c-0.6,0-1-0.4-1-1V27c0-0.6,0.4-1,1-1s1,0.4,1,1v44C50,71.6,49.6,72,49,72z"/>
	<path class="st11" d="M41.3,40c-0.4-0.1-0.9,0.1-1.1,0.4l-12,20c-0.2,0.3-0.2,0.7,0,1c0.2,0.3,0.5,0.5,0.9,0.5h12c0.6,0,1-0.4,1-1
		V41C42,40.6,41.7,40.2,41.3,40z"/>
	<path class="st11" d="M57.9,40.5c-0.2-0.4-0.7-0.6-1.1-0.4c-0.4,0.1-0.7,0.5-0.7,1v20c0,0.6,0.4,1,1,1h12c0.4,0,0.7-0.2,0.9-0.5
		c0.2-0.3,0.2-0.7,0-1L57.9,40.5z"/>
</g>
<g transform="translate(408, 120)">
	<path class="st15" d="M70,70H28c-1.1,0-2-0.9-2-2V30c0-1.1,0.9-2,2-2h42c1.1,0,2,0.9,2,2v38C72,69.1,71.1,70,70,70z"/>
	<circle class="st10" cx="46" cy="40" r="4"/>
	<path class="st20" d="M66.8,60.4l-10-13c-0.4-0.5-1.2-0.5-1.6,0L47,58.1l-6.2-7.7c-0.4-0.5-1.2-0.5-1.6,0l-8,10
		C30.7,61,31.2,62,32,62h34C66.8,62,67.3,61,66.8,60.4z"/>
</g>
<g transform="translate(504, 120)">
	<path class="st21" d="M37.3,53.7c0,1.9,0.7,3.6,2,5s3.1,2,5,2s3.6-0.7,4.9-2l8.2-8.2l-9.9-9.9l-8.2,8.2
		C38,50.1,37.3,51.9,37.3,53.7z"/>
	<path class="st4" d="M49.2,58.7c-1.3,1.3-3.1,2-4.9,2c-1.9,0-3.6-0.7-5-2s-2-3.1-2-5s0.7-3.6,2-4.9l8.6-8.6L41,32.9l-8.8,8.8
		c-6.6,6.6-6.6,17.4,0,24c3.3,3.3,7.7,5,12,5c4.4,0,8.7-1.7,12-5l8.6-8.6l-7-7.1L49.2,58.7z"/>
	<path class="st6" d="M53.5,34.6c0.2-0.2,0.3-0.4,0.3-0.7s-0.1-0.5-0.3-0.7l-5.7-5.7c-0.4-0.4-1-0.4-1.4,0l-5.9,5.9l7.1,7.1
		L53.5,34.6z"/>
	<path class="st6" d="M70.4,50.2l-5.7-5.7c-0.2-0.2-0.4-0.3-0.7-0.3s-0.5,0.1-0.7,0.3l-5.9,5.9l7.1,7.1l5.9-5.9
		C70.8,51.2,70.8,50.6,70.4,50.2z"/>
</g>
<g transform="translate(24, 216)">
	<path class="st2" d="M40,63l-4-4c-0.4-0.4-1-0.4-1.4,0l-8,8c-0.2,0.2-0.3,0.6-0.3,0.9c0.1,0.3,0.3,0.6,0.7,0.7l6,2
		c0.1,0,0.2,0.1,0.3,0.1c0.3,0,0.5-0.1,0.7-0.3l6-6C40.3,64.1,40.3,63.4,40,63z"/>
	<path class="st4" d="M71.5,38.5l-11-11c-0.4-0.4-1-0.4-1.4,0l-28,28c-0.4,0.4-0.4,1,0,1.4l11,11c0.2,0.2,0.5,0.3,0.7,0.3
		s0.5-0.1,0.7-0.3l28-28C71.8,39.6,71.8,38.9,71.5,38.5z"/>
	<path class="st2" d="M63.2,30.3L49.8,43.8c-0.4,0.4-0.4,1,0,1.4l4,4c0.4,0.4,1,0.4,1.4,0l13.5-13.5L63.2,30.3z"/>
</g>
<g transform="translate(120, 216)">
	<path class="st4" d="M57,72H35c-2.2,0-4-1.8-4-4V30c0-2.2,1.8-4,4-4h22c2.2,0,4,1.8,4,4v38C61,70.2,59.2,72,57,72z"/>
	<circle class="st14" cx="46" cy="67" r="2"/>
	<path class="st2" d="M57,62H35c-0.6,0-1-0.4-1-1V33c0-0.6,0.4-1,1-1h22c0.6,0,1,0.4,1,1v28C58,61.6,57.6,62,57,62z"/>
	<path class="st22" d="M70.2,27.8c-1.1-1.1-2.9-1.1-4,0L53.5,40.5c1,0.2,1.9,0.6,2.6,1.4s1.2,1.6,1.4,2.6l12.6-12.6
		C71.3,30.7,71.3,28.9,70.2,27.8z"/>
	<path class="st6" d="M53.5,40.5L48,46l4,4l5.5-5.5c-0.2-1-0.6-1.9-1.4-2.6C55.4,41.1,54.5,40.6,53.5,40.5z"/>
	<path class="st4" d="M52.8,45.2c-0.9-0.9-2.2-1.5-3.5-1.5s-2.6,0.5-3.5,1.5C43.9,47,44,52,44,53l0,0.9l0.9,0c0.1,0,0.3,0,0.6,0
		c1.7,0,5.7-0.2,7.2-1.7c0.9-0.9,1.5-2.2,1.5-3.5S53.7,46.2,52.8,45.2z"/>
</g>
<g transform="translate(216, 216)">
	<path class="st2" d="M53,26h-8c-6.1,0-11,4.9-11,11v24c0,6.1,4.9,11,11,11h8c6.1,0,11-4.9,11-11V37C64,30.9,59.1,26,53,26z"/>
	<path class="st4" d="M48,28h-3c-5,0-9,4-9,9v11c0,5,4,9,9,9h3V28z"/>
	<path class="st4" d="M50,28h3c5,0,9,4,9,9v11c0,5-4,9-9,9h-3V28z"/>
	<rect x="48" y="28" class="st23" width="2" height="29"/>
	<path class="st23" d="M49,44L49,44c-1.1,0-2-0.9-2-2v-7c0-1.1,0.9-2,2-2l0,0c1.1,0,2,0.9,2,2v7C51,43.1,50.1,44,49,44z"/>
	<circle class="st24" cx="49" cy="49" r="2"/>
</g>
<g transform="translate(312, 216)">
	<path class="st5" d="M50,51h-2v-5H27c-0.6,0-1-0.4-1-1V33c0-0.6,0.4-1,1-1h6v2h-5v10h21c0.6,0,1,0.4,1,1V51z"/>
	<rect x="45" y="51" class="st4" width="8" height="20"/>
	<path class="st4" d="M53,72h-8c-0.6,0-1-0.4-1-1V51c0-0.6,0.4-1,1-1h8c0.6,0,1,0.4,1,1v20C54,71.6,53.6,72,53,72z M46,70h6V52h-6
		V70z"/>
	<path class="st2" d="M63,57c0-2.2,4-8,4-8s4,5.8,4,8s-1.8,4-4,4S63,59.2,63,57z"/>
	<path class="st2" d="M67,62c-2.8,0-5-2.2-5-5c0-2.4,3.5-7.6,4.2-8.6l0.8-1.2l0.8,1.2c0.7,1,4.2,6.2,4.2,8.6C72,59.8,69.8,62,67,62z
		 M67,50.8c-1.4,2.2-3,5.1-3,6.2c0,1.7,1.3,3,3,3s3-1.3,3-3C70,55.9,68.4,53.1,67,50.8z"/>
	<path class="st10" d="M65,40H33c-1.1,0-2-0.9-2-2v-9h36v9C67,39.1,66.1,40,65,40z"/>
	<path class="st2" d="M67,28v2H31v-2c0-1.1,0.9-2,2-2h32C66.1,26,67,26.9,67,28z"/>
</g>
<g transform="translate(408, 216)">
	<path class="st22" d="M32,51L32,51c0-4.4,3.6-8,8-8h5V30c0-2.2,1.8-4,4-4l0,0c2.2,0,4,1.8,4,4v13h5c4.4,0,8,3.6,8,8l0,0H32z"/>
	<path class="st10" d="M32,51v20c4.7,0,8.5-3.6,8.5-8c0,4.4,3.8,8,8.5,8s8.5-3.6,8.5-8c0,4.4,3.8,8,8.5,8V51H32z"/>
</g>
<g transform="translate(504, 216)">
	<path class="st4" d="M67.4,48.4L52.3,27.8c-0.1-0.2-0.5-0.7-0.5-0.7c-1.4-1.4-4-1.5-7.2-0.1c-2.9,1.2-6.1,3.5-9.1,6.5
		c-2.9,2.9-5.2,6.1-6.5,9.1c-1.4,3.2-1.3,5.8,0.1,7.2c0,0,0.5,0.4,0.7,0.5l20.6,15.1c0.5,0.5,1.3,0.7,2.1,0.7c2.7,0,6.7-2.5,9.9-5.8
		C66.5,56.2,69.6,50.7,67.4,48.4z"/>
	<path class="st8" d="M31.8,56.4c-0.4-0.5-1.3-0.5-1.6,0c-0.7,1-4.2,6.2-4.2,8.6c0,2.8,2.2,5,5,5s5-2.2,5-5
		C36,62.6,32.5,57.4,31.8,56.4z"/>
	<path class="st5" d="M57,30h-3.1l1.5,2H57c3.9,0,7,3.1,7,7s-3.1,7-7,7h-8c-0.6,0-1,0.4-1,1s0.4,1,1,1h8c5,0,9-4,9-9S62,30,57,30z"
		/>
	<path class="st8" d="M45.3,28.8c-2.7,1.2-5.7,3.3-8.4,6c-2.7,2.7-4.9,5.7-6,8.4c-1,2.3-1.1,4.2-0.3,5c0.8,0.8,2.7,0.7,5-0.3
		c2.7-1.2,5.7-3.3,8.4-6c2.7-2.7,4.9-5.7,6-8.4c1-2.3,1.1-4.2,0.3-5C50,28.2,49.4,28,48.7,28C47.8,28,46.6,28.3,45.3,28.8z"/>
</g>
<g transform="translate(24, 312)">
	<path class="st4" d="M65.4,38.1c-5.5-2.6-10.6-1.1-14.6,0.2c-3.6,1.1-5.7,1.7-7,0.1c-0.4-0.5-0.1-1.6,0.2-2.7
		c0.5-1.6,1.1-3.6-0.2-5.3c-1.7-2.2-5.5-1.9-8-0.2C29.7,34.5,26,41.5,26,49c0,12.7,10.3,23,23,23c10.2,0,19.3-6.9,22.1-16.8
		C71.5,53.9,74.1,42.4,65.4,38.1z M59,53c-2.2,0-4-1.8-4-4s1.8-4,4-4s4,1.8,4,4S61.2,53,59,53z"/>
	<circle class="st8" cx="35" cy="49" r="3"/>
	<circle class="st10" cx="40" cy="59" r="3"/>
	<circle class="st2" cx="51" cy="63" r="3"/>
</g>
<g transform="translate(120, 312)">
	<path class="st8" d="M53,69c-0.1,0-0.2,0-0.4-0.1c-0.5-0.2-0.7-0.7-0.6-1.1l6.2-27.9c0.1-0.3,0.3-0.6,0.6-0.7
		c0.3-0.1,0.6-0.1,0.9,0.1l7.8,4.7c0.2,0.1,0.4,0.4,0.5,0.6c0.1,0.3,0,0.5-0.1,0.8l-14,23.2C53.7,68.8,53.3,69,53,69z"/>
	<path class="st25" d="M53,66.7c0,0-0.1,0-0.1,0c-0.5-0.1-0.9-0.5-0.9-1l-0.1-34.3c0-0.3,0.1-0.6,0.4-0.8c0.2-0.2,0.6-0.3,0.9-0.2
		l8.1,2c0.3,0.1,0.5,0.2,0.6,0.5c0.1,0.2,0.2,0.5,0.1,0.8l-8,32.2C53.9,66.4,53.5,66.7,53,66.7z"/>
	<path class="st10" d="M54,27c0-0.6-0.4-1-1-1H35c-0.6,0-1,0.4-1,1v31h20V27z"/>
	<path class="st6" d="M35,72h18c0.6,0,1-0.4,1-1V58H34v13C34,71.6,34.4,72,35,72z"/>
	<circle class="st5" cx="44" cy="65" r="3"/>
</g>
<g transform="translate(216, 312)">
	<path class="st10" d="M64,71V32c0-2.8-2.2-5-5-5H31c1.6,0,1.1,1.8,2,3c0.6,0.8,3,0.9,3,2v34c0,2.8,2.2,5,5,5H64z"/>
	<path class="st22" d="M36,33H26v-1c0-2.8,2.2-5,5-5l0,0c2.8,0,5,2.2,5,5V33z"/>
	<path class="st22" d="M46,65v1c0,4.5-5,5-5,5s23.7,0,24,0c2.8,0,5-2.2,5-5v-1H46z"/>
	<path class="st20" d="M70.2,31.8c-1.1-1.1-2.9-1.1-4,0L53.5,44.5c1,0.2,1.9,0.6,2.6,1.4s1.2,1.6,1.4,2.6l12.6-12.6
		C71.3,34.7,71.3,32.9,70.2,31.8z"/>
	<path class="st6" d="M53.5,44.5L48,50l4,4l5.5-5.5c-0.2-1-0.6-1.9-1.4-2.6C55.4,45.1,54.5,44.6,53.5,44.5z"/>
	<path class="st4" d="M52.8,49.2c-0.9-0.9-2.2-1.5-3.5-1.5s-2.6,0.5-3.5,1.5C43.9,51,44,56,44,57l0,0.9l0.9,0c0.1,0,0.3,0,0.6,0
		c1.7,0,5.7-0.2,7.2-1.7c0.9-0.9,1.5-2.2,1.5-3.5S53.7,50.2,52.8,49.2z"/>
</g>
<g transform="translate(312, 312)">
	<path class="st10" d="M62.7,47.3l-12-12c-0.3-0.3-0.7-0.4-1.1-0.2l-17,7c-0.3,0.1-0.6,0.4-0.6,0.8l-4,26c0,0.3,0.1,0.6,0.3,0.9
		c0.2,0.2,0.4,0.3,0.7,0.3c0,0,0.1,0,0.2,0l26-4c0.3-0.1,0.6-0.3,0.8-0.6l7-17C63.1,48,63,47.6,62.7,47.3z"/>
	<path class="st4" d="M69.7,45.3l-17-17c-0.4-0.4-1-0.4-1.4,0l-4.5,4.5c-0.4,0.4-0.4,1,0,1.4l17,17c0.2,0.2,0.5,0.3,0.7,0.3
		s0.5-0.1,0.7-0.3l4.5-4.5C70.1,46.3,70.1,45.7,69.7,45.3z"/>
	<path class="st26" d="M45.8,52.2c-1.6-1.6-4.1-1.6-5.7,0c-1.3,1.3-1.5,3.3-0.6,4.8L28.3,68.3c-0.4,0.4-0.4,1,0,1.4
		c0.2,0.2,0.5,0.3,0.7,0.3s0.5-0.1,0.7-0.3L41,58.4c1.5,0.9,3.5,0.7,4.9-0.6C47.4,56.3,47.4,53.7,45.8,52.2z"/>
</g>
<g transform="translate(408, 312)">
	<path class="st5" d="M59,72H39c-2.8,0-5-2.2-5-5V31c0-2.8,2.2-5,5-5h20c2.8,0,5,2.2,5,5v36C64,69.8,61.8,72,59,72z"/>
	<rect x="34" y="32" class="st4" width="30" height="32"/>
	<path class="st3" d="M61,62H37c-0.6,0-1-0.4-1-1V35c0-0.6,0.4-1,1-1h24c0.6,0,1,0.4,1,1v26C62,61.6,61.6,62,61,62z"/>
	<circle class="st4" cx="49" cy="29" r="1"/>
	<circle class="st27" cx="49" cy="68" r="2"/>
</g>
<g transform="translate(504, 312)">
	<path class="st28" d="M49,56c-8.3,0-15-6.7-15-15s6.7-15,15-15s15,6.7,15,15S57.3,56,49,56z"/>
	<path class="st29" d="M41,72c-8.3,0-15-6.7-15-15s6.7-15,15-15s15,6.7,15,15S49.3,72,41,72z"/>
	<path class="st30" d="M57,72c-8.3,0-15-6.7-15-15s6.7-15,15-15s15,6.7,15,15S65.3,72,57,72z"/>
</g>
<g transform="translate(24, 408)">
	<path class="st5" d="M54.1,61.2c-0.5,1.5,5.4-5.2,3.9-4.4L31.6,26.1c-2.8,4.6-2.1,10.6,1.8,14.4L54.1,61.2z"/>
	<path class="st4" d="M53,64c0-4.4,3.6-8,8-8s8,3.6,8,8s-3.6,8-8,8S53,68.4,53,64z M55,64c0,3.3,2.7,6,6,6s6-2.7,6-6s-2.7-6-6-6
		S55,60.7,55,64z"/>
	<polygon class="st31" points="51.3,49.1 46.9,54 51.1,58.2 55.5,53.9 	"/>
	<path class="st5" d="M64.6,40.5c3.8-3.8,4.6-9.8,1.8-14.4L40.1,56.8c-1.5-0.8,4.4,5.9,3.9,4.4L64.6,40.5z"/>
	<path class="st4" d="M37,72c-4.4,0-8-3.6-8-8s3.6-8,8-8s8,3.6,8,8S41.4,72,37,72z M37,58c-3.3,0-6,2.7-6,6s2.7,6,6,6s6-2.7,6-6
		S40.3,58,37,58z"/>
	<circle class="st4" cx="49" cy="51" r="2"/>
</g>
<g transform="translate(120, 408)">
	<path class="st20" d="M58.5,39c-1.8-6.9-8-12-15.5-12c-8.8,0-16,7.2-16,16c0,7.5,5.1,13.7,12,15.5V71h32V39H58.5z"/>
	<path class="st15" d="M71,72H39c-0.6,0-1-0.4-1-1V59.2c-7.1-2.2-12-8.7-12-16.2c0-9.4,7.6-17,17-17c7.5,0,14.1,4.9,16.2,12H71
		c0.6,0,1,0.4,1,1v32C72,71.6,71.6,72,71,72z M40,70h30V40H58.5c-0.5,0-0.9-0.3-1-0.8C55.8,32.6,49.8,28,43,28c-8.3,0-15,6.7-15,15
		c0,6.8,4.6,12.8,11.2,14.5c0.4,0.1,0.8,0.5,0.8,1V70z"/>
	<path class="st20" d="M39,58.5c1.3,0.3,2.6,0.5,4,0.5c8.8,0,16-7.2,16-16c0-1.4-0.2-2.7-0.5-4H39V58.5z"/>
	<path class="st15" d="M43,60c-1.4,0-2.8-0.2-4.2-0.6c-0.4-0.1-0.8-0.5-0.8-1V39c0-0.6,0.4-1,1-1h19.5c0.5,0,0.9,0.3,1,0.8
		c0.4,1.4,0.6,2.9,0.6,4.2C60,52.4,52.4,60,43,60z M40,57.7c1,0.2,2,0.3,3,0.3c8.3,0,15-6.7,15-15c0-1-0.1-2-0.3-3H40V57.7z"/>
</g>
<g transform="translate(216, 408)">
	<circle class="st32" cx="49" cy="49" r="16"/>
	<path class="st33" d="M49,66c-9.4,0-17-7.6-17-17s7.6-17,17-17s17,7.6,17,17S58.4,66,49,66z M49,34c-8.3,0-15,6.7-15,15
		s6.7,15,15,15s15-6.7,15-15S57.3,34,49,34z"/>
	<rect x="45" y="29" class="st6" width="8" height="8"/>
	<path class="st17" d="M53,38h-8c-0.6,0-1-0.4-1-1v-8c0-0.6,0.4-1,1-1h8c0.6,0,1,0.4,1,1v8C54,37.6,53.6,38,53,38z M46,36h6v-6h-6
		V36z"/>
	<rect x="29" y="45" class="st6" width="8" height="8"/>
	<path class="st17" d="M37,54h-8c-0.6,0-1-0.4-1-1v-8c0-0.6,0.4-1,1-1h8c0.6,0,1,0.4,1,1v8C38,53.6,37.6,54,37,54z M30,52h6v-6h-6
		V52z"/>
	<rect x="61" y="45" class="st6" width="8" height="8"/>
	<path class="st17" d="M69,54h-8c-0.6,0-1-0.4-1-1v-8c0-0.6,0.4-1,1-1h8c0.6,0,1,0.4,1,1v8C70,53.6,69.6,54,69,54z M62,52h6v-6h-6
		V52z"/>
	<rect x="45" y="61" class="st6" width="8" height="8"/>
	<path class="st17" d="M53,70h-8c-0.6,0-1-0.4-1-1v-8c0-0.6,0.4-1,1-1h8c0.6,0,1,0.4,1,1v8C54,69.6,53.6,70,53,70z M46,68h6v-6h-6
		V68z"/>
</g>
<g transform="translate(312, 408)">
	<polygon class="st32" points="31,63 49,33 67,63 	"/>
	<path class="st33" d="M67,64H31c-0.4,0-0.7-0.2-0.9-0.5c-0.2-0.3-0.2-0.7,0-1l18-30c0.4-0.6,1.4-0.6,1.7,0l18,30
		c0.2,0.3,0.2,0.7,0,1S67.4,64,67,64z M32.8,62h32.5L49,34.9L32.8,62z"/>
	<rect x="45" y="29" class="st6" width="8" height="8"/>
	<path class="st17" d="M53,38h-8c-0.6,0-1-0.4-1-1v-8c0-0.6,0.4-1,1-1h8c0.6,0,1,0.4,1,1v8C54,37.6,53.6,38,53,38z M46,36h6v-6h-6
		V36z"/>
	<rect x="63" y="59" class="st6" width="8" height="8"/>
	<path class="st17" d="M71,68h-8c-0.6,0-1-0.4-1-1v-8c0-0.6,0.4-1,1-1h8c0.6,0,1,0.4,1,1v8C72,67.6,71.6,68,71,68z M64,66h6v-6h-6
		V66z"/>
	<rect x="27" y="59" class="st6" width="8" height="8"/>
	<path class="st17" d="M35,68h-8c-0.6,0-1-0.4-1-1v-8c0-0.6,0.4-1,1-1h8c0.6,0,1,0.4,1,1v8C36,67.6,35.6,68,35,68z M28,66h6v-6h-6
		V66z"/>
</g>
<g transform="translate(408, 408)">
	<path class="st11" d="M70,72H28c-1.1,0-2-0.9-2-2V28c0-1.1,0.9-2,2-2h42c1.1,0,2,0.9,2,2v42C72,71.1,71.1,72,70,72z"/>
	<circle class="st7" cx="39" cy="39" r="7"/>
	<path class="st7" d="M65,32H53c-0.6,0-1,0.4-1,1v12c0,0.6,0.4,1,1,1h12c0.6,0,1-0.4,1-1V33C66,32.4,65.6,32,65,32z"/>
	<path class="st7" d="M59.9,54.5c-0.4-0.6-1.4-0.6-1.7,0l-6,10c-0.2,0.3-0.2,0.7,0,1c0.2,0.3,0.5,0.5,0.9,0.5h12
		c0.4,0,0.7-0.2,0.9-0.5c0.2-0.3,0.2-0.7,0-1L59.9,54.5z"/>
	<path class="st7" d="M39.6,53.3c-0.4-0.3-0.8-0.3-1.2,0l-5.7,4.1c-0.4,0.3-0.5,0.7-0.4,1.1l2.2,6.7c0.1,0.4,0.5,0.7,1,0.7h7.1
		c0.4,0,0.8-0.3,1-0.7l2.2-6.7c0.1-0.4,0-0.9-0.4-1.1L39.6,53.3z"/>
</g>
<g transform="translate(504, 408)">
	<path class="st5" d="M27,66c-0.4,0-0.7-0.2-0.9-0.5c-0.2-0.4-0.1-0.9,0.2-1.2l24-24c0.4-0.4,1-0.4,1.4,0l5,5c0.4,0.4,0.4,1,0,1.4
		l-5.8,5.8l-1,7.7c-0.1,0.4-0.4,0.8-0.8,0.9l-22,5C27.1,66,27.1,66,27,66z"/>
	<path class="st4" d="M57.1,48c-0.3,0-0.5-0.1-0.7-0.3l-7-7c-0.4-0.4-0.4-1,0-1.4l11.5-11.5c1.1-1.1,2.6-1.7,4.2-1.7
		c1.6,0,3.1,0.6,4.2,1.8c2.3,2.3,2.3,6.1,0,8.4L57.8,47.7C57.6,47.9,57.3,48,57.1,48z"/>
</g>
<g transform="translate(24, 504)">
	<path class="st8" d="M69,38h-6c-0.6,0-1-0.4-1-1s0.4-1,1-1h6c0.6,0,1,0.4,1,1S69.6,38,69,38z"/>
	<path class="st8" d="M61.5,46.5c-0.3,0-0.5-0.1-0.7-0.3l-4.2-4.2c-0.4-0.4-0.4-1,0-1.4c0.4-0.4,1-0.4,1.4,0l4.2,4.2
		c0.4,0.4,0.4,1,0,1.4C62,46.4,61.7,46.5,61.5,46.5z"/>
	<path class="st8" d="M57.2,33.8c-0.3,0-0.5-0.1-0.7-0.3c-0.4-0.4-0.4-1,0-1.4l4.2-4.2c0.4-0.4,1-0.4,1.4,0c0.4,0.4,0.4,1,0,1.4
		L58,33.5C57.8,33.7,57.5,33.8,57.2,33.8z"/>
	<path class="st4" d="M30,71c0,0.6,0.4,1,1,1h20c0.6,0,1-0.4,1-1V47c0-3.9-3.1-7-7-7h-8c-3.9,0-7,3.1-7,7V71z"/>
	<path class="st5" d="M46,40H36c-0.6,0-1-0.4-1-1l0,0c0-0.6,0.4-1,1-1h10c0.6,0,1,0.4,1,1l0,0C47,39.6,46.6,40,46,40z"/>
	<path class="st9" d="M45,30h-5c-2.2,0-4,1.8-4,4v4h10v-7C46,30.4,45.6,30,45,30z"/>
	<rect x="30" y="51" class="st8" width="22" height="14"/>
	<path class="st34" d="M46,32c-1.1,0-2,0.9-2,2s0.9,2,2,2V32z"/>
</g>
<g transform="translate(120, 504)">
	<path class="st4" d="M71,34H27c-0.6,0-1,0.4-1,1v32c0,0.6,0.4,1,1,1h44c0.6,0,1-0.4,1-1V35C72,34.4,71.6,34,71,34z"/>
	<circle class="st9" cx="33" cy="51" r="3"/>
	<path class="st9" d="M34,38h-2c-0.6,0-1,0.4-1,1v6c0,0.6,0.4,1,1,1h2c0.6,0,1-0.4,1-1v-6C35,38.4,34.6,38,34,38z"/>
	<path class="st9" d="M34,56h-2c-0.6,0-1,0.4-1,1v6c0,0.6,0.4,1,1,1h2c0.6,0,1-0.4,1-1v-6C35,56.4,34.6,56,34,56z"/>
	<path class="st9" d="M66,64H41c-0.6,0-1-0.4-1-1V39c0-0.6,0.4-1,1-1h25c0.6,0,1,0.4,1,1v24C67,63.6,66.6,64,66,64z"/>
	<path class="st35" d="M47,49c0,0,0.6-4.6,2-6l16-16c1.1-1.1,2.9-1.1,4,0l0,0c1.1,1.1,1.1,2.9,0,4L53,47C51.6,48.4,47,49,47,49z"/>
</g>
<g transform="translate(216, 504)">
	<path class="st5" d="M67,58c-0.6,0-1-0.4-1-1c0-8-5.4-14.8-13.2-16.6c-0.5-0.1-0.9-0.7-0.8-1.2c0.1-0.5,0.7-0.9,1.2-0.8
		C61.9,40.4,68,48.1,68,57C68,57.6,67.6,58,67,58z"/>
	<path class="st5" d="M31,58c-0.6,0-1-0.4-1-1c0-8.9,6.1-16.6,14.8-18.5c0.5-0.1,1.1,0.2,1.2,0.8c0.1,0.5-0.2,1.1-0.8,1.2
		C37.4,42.2,32,49,32,57C32,57.6,31.6,58,31,58z"/>
	<path class="st5" d="M45,38H33c-0.6,0-1-0.4-1-1s0.4-1,1-1h12c0.6,0,1,0.4,1,1S45.6,38,45,38z"/>
	<path class="st5" d="M65,38H53c-0.6,0-1-0.4-1-1s0.4-1,1-1h12c0.6,0,1,0.4,1,1S65.6,38,65,38z"/>
	<circle class="st7" cx="31" cy="37" r="4"/>
	<path class="st2" d="M31,42c-2.8,0-5-2.2-5-5s2.2-5,5-5s5,2.2,5,5S33.8,42,31,42z M31,34c-1.7,0-3,1.3-3,3s1.3,3,3,3s3-1.3,3-3
		S32.7,34,31,34z"/>
	<circle class="st7" cx="67" cy="37" r="4"/>
	<path class="st2" d="M67,42c-2.8,0-5-2.2-5-5s2.2-5,5-5s5,2.2,5,5S69.8,42,67,42z M67,34c-1.7,0-3,1.3-3,3s1.3,3,3,3s3-1.3,3-3
		S68.7,34,67,34z"/>
	<rect x="45" y="33" class="st6" width="8" height="8"/>
	<path class="st17" d="M53,42h-8c-0.6,0-1-0.4-1-1v-8c0-0.6,0.4-1,1-1h8c0.6,0,1,0.4,1,1v8C54,41.6,53.6,42,53,42z M46,40h6v-6h-6
		V40z"/>
	<rect x="27" y="57" class="st6" width="8" height="8"/>
	<path class="st17" d="M35,66h-8c-0.6,0-1-0.4-1-1v-8c0-0.6,0.4-1,1-1h8c0.6,0,1,0.4,1,1v8C36,65.6,35.6,66,35,66z M28,64h6v-6h-6
		V64z"/>
	<rect x="63" y="57" class="st6" width="8" height="8"/>
	<path class="st17" d="M71,66h-8c-0.6,0-1-0.4-1-1v-8c0-0.6,0.4-1,1-1h8c0.6,0,1,0.4,1,1v8C72,65.6,71.6,66,71,66z M64,64h6v-6h-6
		V64z"/>
</g>
<g transform="translate(312, 504)">
	<path class="st2" d="M63,36c-0.3,0-0.5-0.1-0.7-0.3c-0.4-0.4-0.4-1,0-1.4l3-3c0.4-0.4,1-0.4,1.4,0s0.4,1,0,1.4l-3,3
		C63.5,35.9,63.3,36,63,36z"/>
	<path class="st2" d="M71,45h-4.2c-0.6,0-1-0.4-1-1s0.4-1,1-1H71c0.6,0,1,0.4,1,1S71.5,45,71,45z"/>
	<path class="st2" d="M66,57c-0.3,0-0.5-0.1-0.7-0.3l-3-3c-0.4-0.4-0.4-1,0-1.4s1-0.4,1.4,0l3,3c0.4,0.4,0.4,1,0,1.4
		C66.5,56.9,66.3,57,66,57z"/>
	<path class="st2" d="M54,32.3c-0.6,0-1-0.4-1-1V27c0-0.6,0.4-1,1-1s1,0.4,1,1v4.2C55,31.8,54.6,32.3,54,32.3z"/>
	<path class="st2" d="M45,36c-0.3,0-0.5-0.1-0.7-0.3l-3-3c-0.4-0.4-0.4-1,0-1.4c0.4-0.4,1-0.4,1.4,0l3,3c0.4,0.4,0.4,1,0,1.4
		C45.5,35.9,45.3,36,45,36z"/>
	<path class="st4" d="M27.3,63.3c-0.4,0.4-0.4,1,0,1.4l6,6c0.2,0.2,0.5,0.3,0.7,0.3s0.5-0.1,0.7-0.3l19-19l-7.4-7.4L27.3,63.3z"/>
	<path class="st6" d="M60.7,43.3l-6-6c-0.4-0.4-1-0.4-1.4,0l-7,7l7.4,7.4l7-7C61.1,44.3,61.1,43.7,60.7,43.3z"/>
</g>
<g transform="translate(408, 504)">
	<path class="st2" d="M57.5,62h-20c-0.3,0-0.6,0.1-0.8,0.4c-0.2,0.2-0.3,0.6-0.2,0.9l2,8c0.1,0.4,0.5,0.8,1,0.8h16
		c0.5,0,0.9-0.3,1-0.8l2-8c0.1-0.3,0-0.6-0.2-0.9C58.1,62.1,57.8,62,57.5,62z"/>
	<rect x="62" y="45" class="st36" width="4" height="8"/>
	<path class="st2" d="M38,36h20c0.3,0,0.6-0.1,0.8-0.4c0.2-0.2,0.3-0.6,0.2-0.9l-2-8c-0.1-0.4-0.5-0.8-1-0.8H40
		c-0.5,0-0.9,0.3-1,0.8l-2,8c-0.1,0.3,0,0.6,0.2,0.9C37.4,35.9,37.7,36,38,36z"/>
	<path class="st4" d="M58,34H38c-2.8,0-5,2.2-5,5v20c0,2.8,2.2,5,5,5h20c2.8,0,5-2.2,5-5V39C63,36.2,60.8,34,58,34z"/>
	<rect x="37" y="38" class="st37" width="22" height="22"/>
	<path class="st7" d="M44,54.4l-4.7-4.7c-0.4-0.4-0.4-1,0-1.4l4.7-4.7l1.4,1.4l-4,4l4,4L44,54.4z"/>
	<path class="st7" d="M52,54.4L50.6,53l4-4l-4-4l1.4-1.4l4.7,4.7c0.4,0.4,0.4,1,0,1.4L52,54.4z"/>
</g>
<g transform="translate(504, 504)">
	<path class="st4" d="M70,71H28c-1.1,0-2-0.9-2-2V33c0-1.1,0.9-2,2-2h42c1.1,0,2,0.9,2,2v36C72,70.1,71.1,71,70,71z"/>
	<rect x="28" y="38" class="st7" width="42" height="31"/>
	<circle class="st8" cx="29.5" cy="34.5" r="1.5"/>
	<circle class="st10" cx="34.5" cy="34.5" r="1.5"/>
	<circle class="st11" cx="39.5" cy="34.5" r="1.5"/>
	<path class="st22" d="M63.2,27.8c-1.1-1.1-2.9-1.1-4,0L46.5,40.5c1,0.2,1.9,0.6,2.6,1.4s1.2,1.6,1.4,2.6l12.6-12.6
		C64.3,30.7,64.3,28.9,63.2,27.8z"/>
	<path class="st6" d="M46.5,40.5L41,46l4,4l5.5-5.5c-0.2-1-0.6-1.9-1.4-2.6C48.4,41.1,47.5,40.6,46.5,40.5z"/>
	<path class="st8" d="M66,66H32c-0.6,0-1-0.4-1-1v-7c0-0.6,0.4-1,1-1h34c0.6,0,1,0.4,1,1v7C67,65.6,66.6,66,66,66z"/>
	<path class="st4" d="M45.9,52.2c0.9-0.9,1.4-2.1,1.4-3.4c0-1.3-0.5-2.6-1.5-3.5s-2.2-1.5-3.5-1.5s-2.6,0.5-3.5,1.5
		c-1.1,1.1-1.5,3.3-1.6,5.1c1.6,0.4,2.7,0.7,3.8,1C42.4,51.7,43.8,52.1,45.9,52.2z"/>
	<path class="st8" d="M37,53l0,0.9l0.9,0c0.1,0,0.3,0,0.6,0c1.7,0,5.7-0.2,7.2-1.7c0,0,0-0.1,0.1-0.1c-3.6-1-5.1-2.2-8.8-1.9
		C37,51.5,37,52.6,37,53z"/>
</g>
</svg>
